<?xml version="1.0" standalone="no"?>
<!DOCTYPE svg PUBLIC "-//W3C//DTD SVG 20010904//EN"
 "http://www.w3.org/TR/2001/REC-SVG-20010904/DTD/svg10.dtd">
<svg version="1.0" xmlns="http://www.w3.org/2000/svg"
 width="583.000000pt" height="602.000000pt" viewBox="0 0 583.000000 602.000000"
 preserveAspectRatio="xMidYMid meet">

<g transform="translate(0.000000,602.000000) scale(0.100000,-0.100000)"
fill="#000000" stroke="none">
<path d="M3080 5344 c-84 -18 -174 -48 -277 -90 -46 -19 -115 -39 -155 -45
-101 -15 -146 -37 -255 -124 -101 -82 -251 -180 -323 -212 -55 -24 -149 -109
-175 -158 -11 -20 -30 -38 -43 -42 -14 -3 -24 -15 -28 -32 -12 -54 -18 -67
-50 -114 -19 -27 -34 -53 -34 -58 0 -4 -21 -27 -46 -51 -41 -39 -48 -52 -65
-123 -15 -63 -25 -85 -48 -105 -42 -35 -121 -219 -121 -282 0 -24 -4 -28 -29
-28 -41 0 -81 -17 -81 -33 0 -8 -9 -26 -21 -41 -11 -14 -19 -36 -18 -48 3 -28
-28 -135 -48 -165 -27 -41 -63 -195 -63 -269 0 -58 -4 -74 -20 -89 -27 -24
-26 -32 15 -100 32 -53 34 -60 20 -75 -8 -9 -33 -22 -54 -28 -81 -25 -167
-115 -185 -195 -4 -16 -30 -57 -58 -90 -82 -99 -108 -145 -108 -194 0 -48 27
-240 36 -255 3 -5 7 -53 8 -106 2 -81 6 -107 30 -162 15 -36 32 -94 37 -128 9
-68 30 -111 76 -153 29 -27 123 -53 456 -124 115 -24 140 -35 198 -90 15 -14
16 -13 11 10 -4 24 -2 26 24 20 16 -4 34 -8 41 -10 7 -2 15 0 18 4 2 5 21 2
40 -7 25 -12 35 -23 35 -39 0 -25 -11 -29 -39 -14 -16 9 -17 5 -13 -43 4 -47
-19 -168 -44 -230 -7 -18 -6 -18 20 -1 31 21 87 125 111 209 17 56 16 58 -4
80 -30 32 -27 50 7 41 15 -3 35 -14 45 -23 16 -15 17 -15 11 1 -10 26 19 31
63 9 39 -18 40 -18 49 1 11 25 61 63 70 54 4 -4 9 -42 12 -84 l4 -78 -31 30
-32 30 6 -90 c22 -339 23 -396 15 -460 -5 -39 -13 -81 -18 -94 l-8 -24 -13 31
c-7 17 -20 37 -30 46 -15 13 -21 13 -60 -5 -39 -17 -46 -18 -59 -5 -13 12 -10
17 21 33 l35 18 -16 32 -17 32 -43 -25 c-23 -14 -42 -29 -42 -34 0 -19 115
-112 173 -139 35 -17 104 -41 155 -54 51 -13 98 -29 103 -34 12 -12 1 -40 -26
-66 -13 -13 -13 -16 0 -21 8 -3 15 -1 15 4 0 16 20 12 50 -10 l28 -20 5 21 c6
21 6 21 36 3 32 -19 37 -30 22 -53 -10 -16 -61 -7 -61 11 0 6 -9 3 -21 -8 -16
-14 -24 -16 -38 -7 -13 8 -22 8 -29 1 -6 -6 -16 -7 -28 0 -11 5 -25 7 -32 5
-7 -3 -20 -2 -30 2 -9 4 -43 6 -76 5 -58 -1 -59 -1 -104 47 -25 26 -42 43 -39
37 4 -7 0 -31 -8 -54 -22 -62 -19 -85 15 -113 38 -33 101 -53 225 -72 86 -14
118 -15 224 -4 85 8 168 9 265 3 255 -15 335 -12 386 15 64 34 105 69 154 131
108 137 176 282 274 580 61 185 86 273 101 354 l8 43 -121 58 c-67 32 -134 65
-150 73 -16 8 -90 41 -164 73 l-135 58 -49 -21 c-45 -19 -63 -38 -35 -38 17 0
133 -56 192 -93 70 -44 229 -163 246 -184 17 -21 20 -22 -129 77 -65 43 -170
105 -233 139 l-115 61 -27 -28 -27 -28 36 -18 c52 -24 148 -100 223 -175 62
-61 65 -63 96 -54 l33 10 -5 -41 c-8 -66 -52 -226 -75 -273 -16 -31 -34 -50
-64 -65 -56 -28 -119 -94 -134 -141 -35 -110 -145 -153 -183 -71 -22 46 -53
46 -72 0 -14 -34 -16 -34 -91 -41 -42 -4 -104 -5 -138 -2 -70 6 -87 22 -136
123 -26 53 -29 71 -28 140 1 53 -4 96 -16 131 -26 76 -20 93 38 110 26 8 49
13 50 11 2 -2 26 -45 55 -95 29 -51 57 -95 63 -99 5 -3 17 1 26 10 12 12 16
35 15 100 -1 46 -4 93 -7 103 -6 17 -1 21 31 27 21 3 60 6 86 6 l49 0 -22 -33
c-53 -79 -92 -177 -98 -243 -4 -54 -2 -66 9 -62 9 3 16 26 20 59 3 30 16 79
29 109 30 70 99 171 127 185 l21 11 -22 69 c-36 112 -36 112 -116 120 -38 4
-73 6 -77 4 -5 -1 -13 -21 -18 -43 -6 -23 -17 -50 -23 -61 -14 -22 -14 -27 4
78 6 34 4 37 -17 37 -13 0 -41 3 -61 6 -25 5 -38 3 -38 -5 0 -6 13 -11 30 -11
23 0 31 -5 35 -22 36 -166 55 -356 41 -413 -10 -38 -24 -23 -88 89 -79 140
-178 299 -200 323 -11 12 -17 26 -13 32 9 16 -31 14 -147 -9 -130 -26 -255
-35 -342 -25 -59 6 -74 12 -119 49 -59 48 -105 116 -113 168 -5 30 1 47 36
106 23 39 48 76 56 83 41 34 1 53 -113 54 -40 0 -73 3 -73 7 0 28 60 53 162
67 84 12 128 33 174 83 33 37 94 149 94 173 0 6 18 41 40 78 45 77 31 88 -15
12 -16 -27 -53 -72 -82 -101 -68 -70 -101 -76 -203 -41 -71 24 -78 25 -130 12
-82 -20 -249 -45 -301 -45 -29 0 -51 6 -59 15 -16 20 -15 78 4 157 8 35 17 90
19 123 5 53 34 135 89 242 14 28 28 20 29 -15 0 -15 11 15 23 67 21 92 24 96
69 130 26 20 56 48 68 64 28 37 41 34 34 -7 -9 -47 11 -54 26 -9 15 46 68 130
100 159 37 33 61 43 116 46 56 3 59 9 13 28 -42 18 -40 50 8 90 23 20 32 33
25 36 -15 7 -17 40 -3 49 12 7 14 45 2 45 -4 0 -15 -21 -24 -47 -10 -27 -30
-64 -46 -83 l-29 -35 -38 20 c-20 11 -57 37 -80 58 -48 41 -57 44 -75 21 -7
-8 -25 -14 -38 -12 -31 4 -50 50 -51 125 -1 41 3 52 17 56 16 4 16 5 0 6 -22
1 -22 -1 -3 51 8 24 13 51 10 61 -3 9 5 33 17 52 13 19 28 43 34 53 15 25 34
9 34 -29 0 -42 22 -73 71 -97 46 -24 52 -13 9 18 -16 13 -30 28 -30 34 0 7 4
7 13 1 6 -6 19 -12 28 -16 15 -5 15 -1 2 36 -29 82 -28 138 1 215 43 112 62
134 136 159 74 25 122 30 115 11 -3 -7 -9 -60 -14 -118 -8 -100 -11 -109 -56
-188 -48 -83 -48 -83 -43 -159 6 -84 -6 -79 -15 7 -4 31 -14 77 -23 103 -21
62 -15 149 14 205 25 49 27 62 9 62 -22 0 -68 -56 -79 -96 -14 -49 -14 -162 0
-176 6 -6 8 -16 5 -23 -2 -8 6 -21 20 -29 17 -12 28 -33 36 -72 12 -51 17 -57
69 -92 31 -20 67 -48 79 -62 16 -17 22 -20 23 -10 0 21 -39 141 -50 155 -10
12 21 167 38 188 6 6 19 38 30 70 16 49 21 55 32 42 19 -23 54 -18 110 15 28
17 53 30 56 30 2 0 21 10 42 23 20 12 54 30 76 40 l38 18 -29 -53 c-25 -46
-40 -59 -104 -93 -103 -55 -108 -60 -163 -145 -27 -41 -57 -87 -67 -102 -41
-58 3 -33 86 50 61 61 78 75 57 45 -17 -25 -34 -67 -41 -104 -7 -34 -16 -69
-21 -78 -19 -33 -50 -114 -50 -127 0 -32 18 -8 70 94 78 154 137 257 156 273
16 13 17 10 11 -31 -4 -25 -10 -74 -13 -110 -4 -36 -13 -77 -20 -92 -8 -15
-14 -32 -14 -38 0 -19 20 -10 29 13 11 28 57 180 68 227 10 42 40 53 47 18 3
-13 2 -59 -2 -103 -7 -68 -5 -89 14 -140 40 -116 42 -111 39 93 l-2 192 78
-77 c43 -43 81 -88 84 -100 3 -13 10 -23 15 -23 12 0 13 25 1 48 -5 9 -23 46
-40 81 -32 63 -104 151 -125 151 -6 0 -20 -13 -31 -29 -10 -16 -23 -27 -27
-25 -17 11 -7 56 23 105 l32 50 31 -28 c17 -15 34 -32 38 -38 5 -6 18 -6 38 2
40 15 71 4 97 -34 22 -32 43 -98 43 -137 0 -44 18 -29 29 24 16 75 14 111 -11
160 -21 41 -28 46 -80 60 -32 8 -69 24 -84 35 l-26 20 45 75 c25 41 58 83 74
92 15 9 43 30 62 47 25 22 40 29 60 25 22 -4 29 1 42 27 8 18 28 42 43 53 24
18 30 19 34 6 3 -8 22 -32 44 -54 32 -33 43 -38 68 -32 25 5 30 2 30 -14 0
-32 77 -70 142 -70 35 0 60 5 67 14 19 23 96 39 158 32 32 -3 97 -9 145 -12
77 -6 88 -5 94 10 11 30 -34 63 -191 141 -83 41 -160 85 -170 98 -25 29 -45
64 -45 76 0 17 106 -26 154 -63 43 -33 53 -36 112 -36 116 0 228 -60 301 -161
40 -55 83 -82 101 -64 4 4 6 40 6 82 -1 70 -7 92 -51 193 -9 19 -22 50 -30 69
l-15 35 24 -17 c12 -10 33 -22 46 -29 14 -7 26 -27 32 -52 9 -35 25 -79 71
-194 7 -18 16 -23 35 -20 22 3 30 -4 51 -44 23 -44 24 -49 9 -75 -9 -15 -18
-36 -22 -45 -3 -10 -10 -18 -15 -18 -5 0 -9 -10 -9 -21 0 -12 -20 -54 -45 -93
-41 -67 -45 -78 -45 -138 0 -73 13 -93 68 -104 18 -4 35 -11 38 -15 3 -5 16
-9 30 -9 14 0 32 -7 40 -15 9 -8 24 -15 34 -15 10 0 20 7 24 15 3 10 19 15 45
15 21 0 52 7 67 15 16 8 43 15 60 15 23 0 33 5 37 20 3 11 17 24 31 30 14 5
26 17 26 27 0 14 -128 281 -159 333 -58 94 -91 164 -81 174 16 16 12 56 -11
106 l-20 45 65 -70 c51 -54 62 -71 51 -78 -20 -11 -19 -26 4 -46 49 -43 136
-166 177 -251 25 -52 51 -106 57 -119 7 -14 47 -60 90 -103 96 -97 105 -121
113 -298 6 -153 16 -211 52 -290 22 -50 24 -64 19 -150 -3 -52 -8 -103 -12
-112 -6 -15 -1 -18 26 -19 l34 -1 -33 -9 c-18 -6 -35 -15 -38 -22 -5 -13 97
-220 121 -247 23 -25 18 -33 -15 -26 -25 5 -30 2 -30 -15 0 -11 7 -33 15 -49
18 -34 7 -39 -35 -15 -28 16 -80 20 -80 6 0 -5 25 -31 55 -56 30 -26 53 -51
50 -55 -3 -4 -23 -3 -45 2 -47 12 -55 8 -46 -25 5 -20 27 -33 118 -72 62 -27
117 -52 123 -57 6 -5 4 -24 -4 -51 -15 -52 -26 -93 -44 -175 -10 -42 -22 -69
-36 -78 -30 -22 -26 -31 19 -38 22 -3 76 -18 121 -32 44 -14 83 -23 87 -20 3
3 1 31 -5 61 -9 51 -8 55 9 55 10 0 45 -14 78 -30 l60 -30 0 32 c0 17 -10 62
-22 100 -12 37 -19 70 -16 73 3 4 24 -3 47 -14 22 -12 45 -21 51 -21 16 0 -10
45 -79 134 -42 55 -69 104 -89 160 -42 116 -46 136 -27 136 21 0 19 13 -15 80
-16 33 -30 67 -30 77 0 10 14 47 31 83 21 42 31 78 30 103 -2 37 -2 37 39 37
45 0 52 16 21 44 -11 10 -24 31 -30 47 -9 26 -6 33 19 63 17 18 30 38 30 44 0
10 -46 22 -88 22 -25 0 -82 44 -82 63 0 6 8 15 17 22 16 12 16 14 -1 41 -11
16 -43 59 -72 95 -30 36 -54 71 -54 77 0 16 78 79 108 87 93 23 49 95 -58 95
-50 0 -80 14 -80 38 0 29 28 60 57 64 45 5 37 26 -24 56 -109 56 -123 63 -128
73 -4 5 2 9 12 9 11 0 27 6 38 13 17 13 16 15 -16 39 -19 14 -58 36 -88 49
-32 14 -57 32 -62 45 -4 12 -42 46 -83 75 -57 40 -81 64 -98 98 -12 24 -31 54
-42 65 -59 58 -115 130 -121 154 -18 74 -201 242 -263 242 -12 0 -47 7 -79 15
-31 8 -79 15 -105 15 -46 0 -77 11 -106 38 -7 6 -19 12 -25 12 -7 0 -21 8 -32
16 -18 15 -11 16 100 10 163 -9 292 -44 465 -129 47 -23 99 -52 115 -63 48
-34 112 -64 139 -64 35 0 39 -24 10 -78 -22 -40 -25 -56 -21 -109 8 -107 64
-153 186 -153 39 0 51 4 51 15 0 19 4 19 48 -2 53 -25 63 -38 86 -107 l21 -61
40 2 c22 1 59 8 82 16 34 12 50 12 76 3 36 -12 92 -49 122 -80 19 -20 19 -20
0 -11 -11 4 -31 8 -45 9 -40 2 -29 -44 27 -115 26 -34 53 -68 58 -77 19 -31
52 -87 78 -135 l27 -48 -35 7 c-33 6 -35 5 -35 -20 0 -14 20 -64 43 -110 l44
-84 -32 19 c-27 16 -34 17 -44 6 -8 -10 -8 -22 0 -46 6 -18 9 -35 5 -38 -3 -4
-6 -1 -6 5 0 7 -9 12 -20 12 -17 0 -20 -7 -20 -43 0 -56 51 -203 90 -259 31
-45 86 -163 73 -156 -63 32 -86 38 -99 27 -22 -18 -18 -92 7 -123 21 -27 61
-120 73 -169 7 -28 6 -28 -16 -13 -52 37 -61 7 -28 -88 18 -53 18 -57 2 -51
-9 4 -27 10 -39 12 -29 7 -31 -18 -3 -56 48 -68 103 -374 94 -527 -3 -55 -7
-113 -10 -131 l-5 -32 -34 16 c-40 19 -65 7 -65 -32 0 -40 40 -148 106 -285
l65 -135 -80 79 c-94 91 -116 96 -116 26 1 -25 5 -62 9 -83 8 -38 8 -38 -12
-26 -30 19 -45 1 -46 -56 -1 -47 -5 -52 -23 -34 -19 19 -41 2 -49 -36 l-6 -35
-43 39 c-76 70 -105 75 -105 18 0 -39 -43 -118 -107 -198 l-48 -59 -22 27
c-12 15 -24 25 -27 22 -3 -2 -34 -68 -69 -144 -36 -77 -81 -175 -101 -218
l-36 -78 -26 20 c-26 21 -26 21 -51 1 -14 -11 -62 -32 -107 -47 -71 -23 -96
-26 -206 -25 -190 1 -270 -25 -352 -116 -36 -40 -78 -112 -92 -160 -5 -15 -1
-30 12 -47 20 -25 94 -188 107 -235 4 -14 -16 7 -44 47 -45 62 -168 173 -193
173 -17 0 -6 -25 32 -72 22 -28 40 -54 40 -59 0 -4 -19 3 -42 16 -42 24 -88
33 -88 17 0 -5 7 -17 15 -28 22 -30 18 -34 -20 -18 -45 19 -64 18 -72 -3 -4
-10 -13 -23 -21 -29 -12 -8 -12 -17 -1 -52 7 -23 16 -42 21 -42 5 0 4 9 -2 19
-5 11 -10 31 -10 45 0 19 4 24 16 19 13 -5 15 -2 9 16 -11 35 19 36 81 2 32
-17 59 -29 62 -26 2 2 -12 23 -32 47 -21 24 -32 44 -26 46 7 3 38 -10 71 -27
77 -40 77 -12 1 71 -41 45 -21 40 44 -9 39 -31 78 -74 112 -125 68 -102 90
-104 52 -5 -42 108 -77 185 -100 217 l-20 28 21 48 c66 155 215 247 373 230
96 -11 175 -36 188 -60 17 -34 50 -66 68 -66 21 0 45 27 57 65 8 24 16 31 42
33 19 2 46 -2 62 -9 44 -18 111 -98 151 -180 l36 -73 11 39 c6 22 16 67 22
101 l12 60 41 -2 c64 -4 183 -38 217 -63 16 -12 37 -21 47 -20 9 1 36 1 59 0
40 -1 44 -4 73 -53 17 -29 38 -74 48 -100 25 -71 30 -66 47 50 6 35 10 41 20
32 12 -10 15 -2 21 39 4 29 12 51 18 51 22 0 105 -59 150 -105 59 -62 102
-145 124 -241 16 -66 21 -75 29 -59 17 32 53 155 53 181 0 31 14 30 39 -3 12
-14 24 -24 27 -21 11 12 16 263 6 300 -11 42 -7 46 26 22 22 -15 22 -14 22 25
0 39 1 41 33 41 19 1 44 11 62 25 36 30 19 34 -18 5 -14 -11 -39 -20 -56 -20
-28 0 -31 -3 -31 -29 0 -28 -2 -29 -34 -24 l-34 5 13 -38 c15 -42 19 -146 8
-232 -5 -47 -8 -51 -22 -39 -36 31 -48 28 -54 -16 -6 -51 -37 -160 -44 -154
-2 3 -11 31 -20 63 -32 123 -105 223 -217 296 -73 47 -86 48 -86 6 0 -18 -5
-40 -10 -48 -7 -11 -10 -11 -10 -2 0 7 -4 11 -9 8 -5 -3 -12 -30 -16 -61 -3
-30 -10 -57 -14 -59 -4 -3 -27 34 -50 82 l-43 87 -61 -1 c-47 -1 -69 4 -92 20
-34 24 -183 65 -236 66 l-36 0 -12 -67 c-22 -115 -23 -116 -62 -43 -41 79
-112 152 -159 166 -34 10 -33 11 41 22 42 6 83 14 92 18 14 5 17 0 17 -30 0
-20 3 -36 8 -36 8 1 123 170 142 210 36 73 89 89 152 46 31 -21 36 -22 45 -7
8 13 17 1 46 -62 20 -42 40 -77 45 -77 19 0 58 57 93 134 19 42 39 76 46 76
13 0 53 -116 53 -154 1 -19 2 -19 15 5 21 39 64 194 69 245 2 25 6 47 9 51 13
12 59 -30 112 -101 104 -141 111 -100 30 179 -30 105 -55 194 -55 198 0 5 23
-12 51 -37 28 -25 55 -46 60 -46 21 0 6 57 -40 158 -86 189 -95 243 -59 352
19 60 21 89 23 361 2 163 6 305 9 316 3 11 0 36 -9 56 -34 81 -3 137 66 123
35 -7 35 -11 -1 88 -35 97 -12 112 66 44 33 -30 46 -37 41 -23 -4 11 -24 62
-44 112 -20 51 -33 96 -30 100 4 4 22 -4 39 -17 l32 -24 -22 38 c-27 46 -27
49 -1 41 l20 -7 -19 39 c-11 21 -30 47 -42 58 -12 11 -48 54 -79 95 -30 41
-64 84 -73 94 -63 70 -129 196 -101 196 9 0 64 -43 118 -94 27 -25 52 -43 56
-40 7 4 -55 168 -82 214 -13 23 -59 120 -59 125 0 11 19 3 42 -17 58 -54 55
-56 54 33 -1 78 0 82 29 105 l30 24 -18 33 c-10 19 -41 58 -68 88 -57 63 -52
79 18 57 70 -22 103 -29 103 -22 0 4 -18 25 -40 48 -22 23 -64 73 -93 111 -55
73 -88 96 -191 136 l-58 22 44 18 c89 35 108 34 164 -10 29 -21 62 -42 75 -46
73 -22 186 -115 262 -214 23 -31 45 -58 48 -61 8 -7 109 -169 116 -186 4 -12
-1 -11 -31 1 -42 18 -46 18 -46 5 0 -20 105 -172 108 -157 2 9 -10 36 -26 59
-51 77 -52 76 16 51 64 -25 -129 278 -255 398 -64 62 -126 105 -171 120 -38
12 -112 64 -112 79 0 4 22 31 50 60 27 28 76 95 109 148 130 211 165 324 159
523 -3 118 -5 130 -26 151 -17 17 -33 23 -65 22 -43 -1 -114 -31 -136 -58 -27
-32 -102 -44 -322 -51 l-216 -7 -64 49 c-75 57 -214 130 -317 167 -239 85
-500 89 -847 12 -52 -11 -65 -11 -95 2 -99 42 -118 46 -240 48 -82 2 -147 -2
-190 -12z m1245 -96 c189 -33 470 -135 455 -164 -3 -5 -32 -9 -65 -9 -48 0
-80 9 -160 42 -55 23 -138 56 -185 73 -151 57 -190 72 -190 76 0 5 61 -3 145
-18z m-911 -27 c75 -17 87 -36 51 -84 -12 -17 -16 -17 -65 10 -106 58 -136 72
-155 73 -17 0 -18 2 -5 10 17 12 102 7 174 -9z m676 -38 c36 -15 67 -30 70
-33 3 -3 23 -17 45 -32 46 -31 103 -48 160 -48 73 0 185 -58 185 -95 0 -15
-56 -59 -62 -48 -5 13 -91 70 -117 78 -14 4 -56 27 -93 52 -95 60 -115 68
-298 108 -77 18 -179 19 -250 4 -73 -16 -72 -5 2 19 48 16 91 21 178 21 103 1
122 -2 180 -26z m1374 -130 c-3 -43 -13 -105 -21 -138 -35 -130 -145 -346
-205 -402 -64 -60 -143 -21 -174 85 -21 73 -16 271 9 318 35 68 155 144 227
144 23 0 98 32 125 54 40 31 46 22 39 -61z m-2469 47 c11 -5 45 -19 75 -32 61
-25 123 -59 117 -64 -2 -2 -19 1 -38 6 -19 6 -63 15 -99 21 -36 5 -83 18 -105
28 -22 10 -53 24 -70 31 -30 13 -30 13 -6 19 29 8 100 3 126 -9z m909 -36 c62
-28 88 -35 134 -34 86 2 103 -3 247 -72 l70 -33 -60 -3 c-60 -3 -177 20 -224
44 -14 8 -37 14 -50 14 -12 0 -44 11 -70 24 -28 14 -93 31 -161 41 l-114 19
40 17 c60 27 102 23 188 -17z m-1214 -54 c0 -5 -12 -10 -27 -10 -60 0 -213
-39 -271 -69 -9 -5 -48 -22 -87 -37 -136 -54 -264 -144 -385 -270 -58 -61 -71
-80 -57 -82 10 -2 34 6 53 17 46 27 54 27 18 -1 -53 -41 -164 -153 -164 -165
0 -7 -4 -13 -10 -13 -5 0 -10 -7 -10 -15 0 -8 2 -15 5 -15 7 0 89 54 150 98
54 39 151 92 168 92 7 0 31 15 53 33 67 57 194 127 230 127 12 0 35 -5 50 -10
32 -13 94 4 94 25 0 15 88 30 119 20 16 -5 25 0 38 23 17 29 17 29 34 9 13
-16 28 -21 68 -21 28 0 51 -1 51 -3 0 -17 -115 -46 -235 -58 -68 -8 -211 -50
-299 -89 -32 -14 -63 -26 -68 -26 -15 0 -169 -72 -263 -124 -54 -30 -115 -79
-149 -121 -38 -46 -91 -86 -133 -99 -28 -9 -30 12 -7 89 11 39 26 64 56 91 23
20 52 59 65 85 13 26 30 50 38 53 8 3 15 16 15 30 0 38 17 74 37 80 10 3 27
21 37 38 24 42 124 139 162 157 16 7 43 19 59 27 17 7 55 20 85 28 89 24 142
42 192 66 26 12 67 28 90 35 51 16 198 20 198 5z m152 -102 c90 -21 97 -24 92
-44 -3 -12 -1 -25 5 -28 6 -4 11 -11 11 -17 0 -16 -44 -10 -75 11 -24 16 -40
19 -77 14 -40 -6 -51 -3 -82 21 -22 17 -55 30 -88 35 -52 7 -52 8 -13 10 22 1
54 6 70 10 47 12 54 12 157 -12z m-317 -17 c-6 -5 -35 -19 -65 -31 -56 -22
-68 -27 -130 -53 -19 -8 -42 -17 -50 -20 -8 -3 -33 -13 -55 -22 -34 -14 -38
-14 -25 -1 13 13 153 74 280 122 42 16 58 18 45 5z m1980 -67 c-8 -20 -15 -39
-15 -42 0 -3 -3 -2 -7 1 -3 4 -12 2 -20 -5 -11 -9 -12 -7 -6 8 9 26 45 74 55
74 5 0 1 -16 -7 -36z m-19 -100 c2 -65 24 -161 51 -223 30 -67 23 -77 -11 -18
-48 82 -81 242 -56 272 7 8 13 15 14 15 0 0 2 -21 2 -46z m-2387 -32 c-37 -41
-129 -112 -129 -98 0 5 152 136 159 136 2 0 -12 -17 -30 -38z m300 -294 c-5
-18 -9 -34 -9 -35 0 -1 -14 -5 -32 -8 -41 -10 -137 -104 -168 -168 -14 -27
-26 -44 -28 -38 -5 14 -32 14 -104 -1 -66 -14 -92 -33 -153 -116 l-40 -53 -3
52 c-2 29 -1 62 2 73 3 12 37 55 75 96 39 41 70 78 71 83 0 10 -27 8 -95 -8
-80 -20 -82 -19 -54 11 44 47 183 116 191 93 2 -4 46 -2 98 6 52 8 121 13 152
12 43 -1 62 2 75 16 26 25 33 21 22 -15z m-1144 -988 c13 -26 21 -30 57 -30
31 0 46 -6 64 -25 17 -18 33 -25 62 -25 45 0 62 -14 62 -50 0 -30 -40 -73 -83
-89 -36 -14 -108 -14 -144 0 -48 18 -59 38 -58 109 1 61 13 140 21 140 2 0 10
-13 19 -30z m-55 -410 c0 -16 -22 -52 -58 -94 -34 -39 -71 -109 -72 -135 0 -8
-7 -23 -16 -33 -27 -29 -36 -109 -39 -338 -4 -277 -8 -266 195 -473 92 -93
150 -160 153 -176 3 -14 17 -43 31 -63 14 -21 23 -38 20 -38 -42 0 -354 74
-392 92 -39 20 -80 94 -87 156 -3 31 -17 80 -30 108 -29 63 -48 162 -40 207 3
17 -1 63 -9 102 -16 76 -15 95 3 44 18 -52 21 -29 4 41 -16 72 -10 161 13 194
8 11 14 26 14 33 0 7 13 34 29 60 l30 48 0 -35 c-1 -54 19 -231 29 -265 l9
-30 6 35 c4 19 8 100 10 180 4 160 23 240 74 307 43 56 123 103 123 73z m405
-700 c33 -7 71 -14 83 -17 l24 -4 -25 -32 c-46 -61 -97 -88 -182 -98 -42 -4
-93 -16 -113 -26 -33 -16 -37 -22 -37 -58 0 -34 -3 -40 -23 -43 -37 -6 -120
27 -154 61 -19 19 -27 24 -21 12 6 -11 21 -29 32 -39 30 -28 26 -39 -11 -32
-64 12 -160 159 -148 226 4 25 10 34 20 30 37 -12 219 -1 290 18 82 23 162 23
265 2z m1740 -962 c-13 -63 -78 -244 -128 -358 -81 -183 -167 -314 -269 -405
-51 -46 -54 -47 -103 -41 -27 3 -61 6 -75 7 -22 0 -21 2 10 13 35 13 35 13 35
72 0 32 -4 76 -9 97 l-8 38 36 -7 c53 -9 158 14 154 35 -3 11 -13 15 -31 14
-22 -1 -27 3 -27 20 0 12 9 36 20 52 11 17 25 39 32 50 23 35 77 85 93 85 17
0 20 21 4 37 -7 7 -2 17 20 33 17 12 38 34 46 50 15 29 50 135 59 181 5 22 14
28 68 41 35 8 67 16 71 17 5 0 6 -14 2 -31z m-1088 -232 c-4 -45 0 -78 16
-128 20 -66 20 -68 2 -82 -26 -18 -14 -41 35 -66 22 -11 40 -24 40 -28 0 -4
-46 -7 -102 -7 -67 0 -103 -4 -105 -11 -2 -7 -12 -10 -22 -7 -17 4 -17 9 9 77
39 101 97 274 105 315 12 57 28 10 22 -63z m478 -228 c23 -33 65 -172 72 -239
6 -57 5 -59 -23 -70 -16 -6 -57 -13 -91 -16 -56 -5 -64 -3 -87 20 l-25 25 30
55 c16 30 39 93 50 139 29 112 43 129 74 86z m-365 -129 c36 -7 80 -21 98 -32
23 -14 42 -17 64 -13 30 6 31 5 14 -12 -14 -16 -14 -21 -3 -30 11 -9 19 -6 37
13 37 39 43 29 16 -22 -14 -27 -27 -56 -30 -66 -3 -9 -12 -20 -21 -23 -24 -10
-65 5 -65 23 0 15 -1 15 -13 -1 -8 -11 -23 -17 -38 -14 -20 2 -25 9 -27 41 -4
42 4 46 42 16 26 -20 26 -20 26 0 0 31 17 34 56 11 19 -12 37 -20 40 -17 6 6
-63 47 -81 47 -8 0 -18 -7 -23 -16 -7 -13 -13 -13 -36 -3 -22 10 -29 10 -35 0
-6 -9 -13 -9 -34 0 -20 9 -30 9 -41 0 -10 -9 -20 -9 -39 0 -23 10 -24 14 -15
40 11 33 -2 58 -31 60 -9 1 -5 4 9 9 27 8 33 8 130 -11z m-135 -184 c129 -6
135 -7 85 -16 -98 -17 -204 -6 -235 24 -7 6 2 7 25 3 19 -4 76 -9 125 -11z
m2065 -14 c-23 -81 -55 -93 -91 -33 -12 20 -29 43 -37 50 -13 10 -2 12 60 12
l77 0 -9 -29z m-1705 9 c3 -5 -3 -10 -15 -10 -12 0 -18 5 -15 10 3 6 10 10 15
10 5 0 12 -4 15 -10z m-416 -50 c52 -6 115 -8 140 -5 38 5 43 4 27 -6 -27 -16
-249 -4 -285 16 l-26 15 25 -5 c14 -2 67 -9 119 -15z"/>
<path d="M917 2044 c-10 -11 3 -24 24 -24 23 0 25 15 3 24 -19 7 -19 7 -27 0z"/>
<path d="M1000 1985 c0 -8 9 -15 20 -15 24 0 27 15 4 24 -22 9 -24 8 -24 -9z"/>
<path d="M982 1868 c5 -15 28 -18 29 -3 0 6 -7 12 -17 13 -10 3 -15 -1 -12
-10z"/>
<path d="M3430 4301 c0 -10 -7 -24 -15 -31 -20 -16 -19 -77 1 -115 9 -19 13
-42 9 -61 -7 -38 7 -76 41 -117 22 -26 23 -32 11 -51 -41 -63 55 -61 126 3 23
21 27 32 27 82 0 38 -5 63 -15 73 -8 8 -15 22 -15 31 0 8 -10 19 -23 24 -23 9
-46 57 -61 123 -3 15 -15 30 -26 33 -11 3 -20 11 -20 16 0 5 -9 9 -20 9 -13 0
-20 -7 -20 -19z"/>
<path d="M2877 4218 c-78 -40 -109 -131 -33 -97 22 10 34 8 79 -14 41 -20 55
-33 65 -61 10 -26 10 -41 2 -56 -15 -28 -3 -43 27 -35 22 5 24 3 18 -17 -15
-50 -58 -127 -85 -153 -17 -16 -30 -35 -30 -42 0 -18 31 -16 60 4 14 10 39 25
55 33 17 9 42 24 58 34 19 13 26 14 22 5 -3 -8 -22 -24 -43 -36 -46 -26 -81
-80 -58 -89 8 -3 25 0 37 7 24 12 163 49 189 49 8 0 43 13 77 29 43 21 71 42
92 72 55 75 35 99 -66 78 -32 -6 -70 -13 -84 -16 -14 -3 -48 -22 -74 -43 -27
-22 -51 -38 -53 -36 -10 11 20 90 46 117 29 32 47 91 37 123 -16 52 -13 50
-40 32 -13 -9 -33 -16 -43 -16 -25 0 -62 41 -62 69 0 13 -7 35 -16 51 -16 25
-21 27 -80 27 -39 0 -75 -7 -97 -19z"/>
<path d="M2707 4093 c-15 -26 -16 -86 -3 -117 11 -26 12 -45 5 -76 -10 -45 -6
-62 15 -54 33 13 61 135 43 189 -16 47 -48 78 -60 58z"/>
<path d="M2784 4086 c-3 -9 -3 -26 0 -39 27 -92 9 -199 -48 -282 -20 -28 -36
-55 -36 -59 0 -4 -22 -36 -50 -72 -48 -63 -61 -94 -40 -94 6 0 18 13 28 28 35
58 89 110 133 130 40 19 48 27 54 59 4 20 19 52 35 69 48 55 48 83 -2 181 -43
88 -63 108 -74 79z"/>
<path d="M1667 4062 c-10 -10 -17 -26 -17 -35 0 -9 -4 -19 -10 -22 -19 -11 -9
-85 11 -85 5 0 9 12 9 28 0 15 9 44 20 65 32 59 23 89 -13 49z"/>
<path d="M4214 3860 c-22 -8 -53 -65 -60 -110 -9 -55 -52 -119 -110 -165 -27
-22 -55 -46 -61 -54 -22 -26 -15 -59 17 -78 33 -19 41 -57 14 -67 -9 -3 -33
-6 -54 -6 -50 0 -66 -24 -44 -66 22 -41 95 -134 106 -134 5 0 54 12 109 27 73
19 99 31 99 42 0 9 -13 67 -28 128 -16 62 -25 116 -22 120 4 5 28 49 54 98 31
58 69 112 107 150 63 65 73 94 37 114 -22 11 -132 12 -164 1z"/>
<path d="M3694 3760 c-68 -70 -110 -94 -176 -104 -26 -4 -102 -27 -170 -52
-195 -71 -257 -85 -369 -86 -55 -1 -102 -5 -105 -10 -3 -4 -12 -8 -20 -8 -8 0
-30 -10 -49 -23 -44 -30 -216 -213 -190 -203 44 18 58 16 20 -2 -22 -10 -60
-43 -84 -72 -37 -43 -46 -49 -53 -36 -6 11 -3 25 12 45 11 16 16 32 12 35 -5
3 -36 1 -68 -4 -32 -6 -124 -10 -204 -10 -110 0 -162 -5 -217 -20 -93 -24
-218 -64 -266 -85 -47 -19 -202 -118 -212 -135 -14 -22 2 -20 36 6 95 71 386
145 579 148 108 1 135 -9 210 -78 25 -23 56 -49 70 -58 l25 -18 -25 9 c-100
35 -255 71 -309 71 -52 0 -181 -25 -241 -48 -125 -45 -247 -150 -280 -240 -19
-49 -20 -83 -2 -55 82 128 213 231 327 255 76 16 230 28 278 22 53 -7 64 -24
15 -24 -57 0 -171 -27 -223 -53 -72 -35 -154 -113 -177 -166 -12 -28 -15 -48
-9 -54 6 -6 13 -2 20 11 20 38 84 102 134 134 76 49 148 68 272 73 l110 4 -58
-14 c-32 -9 -75 -26 -97 -40 -22 -14 -42 -25 -45 -25 -15 0 -125 -90 -125
-102 0 -16 17 -7 59 32 23 22 48 40 55 40 7 0 16 4 22 9 5 6 29 15 54 21 25 6
72 18 105 26 83 21 227 29 253 15 18 -10 25 -6 58 37 21 26 58 65 83 88 29 26
40 43 33 48 -17 10 -52 -12 -52 -33 0 -25 -33 -53 -54 -45 -17 7 -106 118
-106 133 0 5 14 12 31 16 53 12 143 55 161 78 16 21 17 21 65 4 26 -9 60 -17
75 -17 15 0 30 -5 33 -10 14 -23 91 -52 133 -52 24 1 57 -5 73 -14 27 -13 31
-13 69 12 22 15 40 30 40 34 0 3 -11 13 -25 20 -42 22 -29 30 50 30 56 0 75 3
75 13 0 16 -27 41 -54 51 -14 5 -17 14 -14 46 2 22 1 40 -2 40 -11 0 -86 -54
-148 -107 -63 -53 -85 -62 -97 -43 -4 6 -12 7 -18 4 -7 -4 5 11 26 33 29 30
45 62 67 129 33 102 26 98 213 153 109 32 122 32 145 -1 16 -22 60 -23 89 -3
20 14 23 13 42 -11 26 -33 26 -34 -4 -66 -14 -15 -30 -39 -35 -53 -6 -15 -17
-25 -29 -25 -23 0 -39 -19 -51 -59 -10 -36 -9 -36 51 -16 24 8 71 19 104 23
45 6 59 12 56 22 -13 42 -11 106 2 125 15 20 16 19 54 -11 24 -20 44 -48 56
-80 18 -50 52 -88 68 -78 5 3 9 33 9 66 0 59 -6 77 -58 185 -14 27 -14 44 -3
127 7 53 10 105 6 116 -12 37 -48 24 -111 -40z m-696 -297 c70 -46 80 -118 26
-182 -36 -44 -89 -57 -160 -42 -146 33 -166 148 -39 222 66 38 117 38 173 2z"/>
<path d="M2848 3414 c-25 -55 39 -108 83 -68 39 35 14 94 -40 94 -24 0 -34 -6
-43 -26z"/>
<path d="M1478 3552 c34 -111 53 -145 85 -157 24 -8 31 -6 43 10 22 29 17 40
-18 40 -28 0 -36 6 -50 35 -10 19 -18 56 -18 81 0 44 1 45 29 41 25 -3 28 -8
27 -40 -1 -45 27 -53 32 -9 2 17 8 25 14 21 7 -4 8 -2 4 5 -13 20 -59 38 -117
44 l-55 7 24 -78z"/>
<path d="M3343 3505 c-17 -7 -39 -26 -49 -42 -10 -15 -33 -47 -52 -71 l-34
-43 49 30 c27 16 59 41 73 55 17 19 34 26 62 26 26 0 41 5 45 16 12 32 -45 50
-94 29z"/>
<path d="M3385 3440 c-3 -5 -2 -10 4 -10 5 0 13 5 16 10 3 6 2 10 -4 10 -5 0
-13 -4 -16 -10z"/>
<path d="M3584 3300 c-110 -29 -204 -76 -205 -103 -1 -16 -3 -17 -6 -5 -5 21
-17 17 -115 -40 -43 -25 -78 -52 -78 -59 0 -8 25 -26 56 -40 146 -67 362 -5
426 122 31 61 34 146 5 144 -7 0 -44 -9 -83 -19z"/>
<path d="M4406 3252 c-3 -3 -3 -9 0 -13 7 -12 54 -12 54 0 0 10 -47 21 -54 13z"/>
<path d="M4123 3179 c-92 -30 -92 -30 -86 -59 5 -25 2 -31 -21 -40 -32 -12
-33 -31 -3 -66 l24 -27 86 18 86 19 6 51 c4 27 5 69 3 92 l-3 41 -92 -29z"/>
<path d="M3055 3120 c-3 -5 -1 -10 4 -10 6 0 11 5 11 10 0 6 -2 10 -4 10 -3 0
-8 -4 -11 -10z"/>
<path d="M2765 3012 c-25 -20 -55 -59 -39 -49 6 3 19 -8 29 -25 l18 -32 -30
22 c-39 28 -41 28 -67 -5 -32 -41 -38 -62 -16 -56 11 3 34 -4 52 -15 l33 -19
52 23 c40 18 51 27 46 40 -5 14 -3 15 15 5 24 -13 46 -5 74 26 16 18 15 19
-30 40 -26 12 -57 31 -69 42 -27 25 -42 26 -68 3z"/>
<path d="M4113 2972 l-51 -17 18 -35 c23 -42 25 -70 6 -70 -8 0 -17 -12 -20
-26 -12 -45 -58 -56 -194 -44 -64 6 -145 18 -179 26 -69 17 -54 21 -318 -78
-121 -46 -126 -49 -107 -55 8 -3 49 -32 92 -64 121 -91 119 -91 198 -61 117
43 282 28 282 -26 0 -9 -7 -38 -15 -64 l-14 -48 27 0 c67 0 192 22 231 40 42
21 51 20 85 -9 14 -12 181 -44 193 -37 1 1 -6 20 -16 42 -10 22 -53 74 -95
116 -42 42 -76 84 -76 94 0 11 14 32 30 48 45 44 55 95 36 175 -9 36 -16 76
-16 89 0 27 -21 28 -97 4z"/>
<path d="M2980 2929 c-18 -15 -20 -19 -7 -15 10 3 22 6 26 6 4 0 8 7 8 15 0 8
-1 15 -1 15 -1 0 -12 -10 -26 -21z"/>
<path d="M3080 2924 c0 -6 -24 -14 -54 -18 -61 -7 -106 -21 -106 -33 0 -5 17
-17 38 -28 20 -11 58 -39 83 -63 l47 -43 46 23 c25 12 46 28 46 34 0 7 19 26
43 41 25 18 42 36 42 48 0 18 -8 20 -85 23 -52 2 -87 8 -92 15 -5 8 -8 8 -8 1z"/>
<path d="M2820 2841 c-19 -10 -35 -25 -35 -32 0 -8 -5 -20 -9 -28 -14 -22 36
18 62 51 28 33 27 34 -18 9z"/>
<path d="M3435 2829 c-22 -4 -62 -8 -89 -8 -39 -1 -68 -11 -135 -47 -109 -59
-109 -59 -83 -87 l22 -23 205 81 c113 45 208 85 212 89 9 8 -83 6 -132 -5z"/>
<path d="M2845 2794 c-16 -25 -16 -27 4 -48 12 -12 21 -28 21 -34 0 -7 16 -12
40 -12 22 0 40 2 40 5 0 10 -73 115 -80 115 -4 0 -15 -12 -25 -26z"/>
<path d="M2920 2670 c0 -13 30 -13 50 0 11 7 7 10 -17 10 -18 0 -33 -4 -33
-10z"/>
<path d="M3195 2658 c-11 -6 -22 -12 -24 -14 -2 -2 4 -15 13 -29 16 -24 16
-25 -4 -25 -11 0 -20 -5 -20 -11 0 -26 29 -55 142 -140 l121 -92 84 13 c46 7
86 16 88 20 3 4 -30 10 -73 13 -104 7 -183 38 -243 96 -45 43 -61 71 -41 71 4
0 25 -5 46 -10 22 -5 44 -7 48 -4 11 7 -7 38 -49 85 -37 41 -54 46 -88 27z"/>
<path d="M2971 2642 l-23 -18 26 -13 c18 -10 32 -11 46 -5 21 9 21 9 -3 32
-23 22 -25 22 -46 4z"/>
<path d="M3031 2591 c-18 -11 0 -45 43 -80 17 -14 70 -63 117 -108 47 -46 93
-83 102 -83 9 0 17 2 17 4 0 2 -44 47 -98 100 -54 53 -111 114 -128 136 -32
43 -33 44 -53 31z"/>
<path d="M2735 2500 c-33 -7 -79 -29 -73 -35 2 -2 39 1 83 7 44 5 108 7 141 4
63 -6 174 -40 235 -71 28 -15 32 -15 21 -2 -21 25 -182 88 -237 93 -110 10
-141 11 -170 4z"/>
<path d="M2590 2479 c-14 -6 -38 -22 -53 -37 -21 -20 -30 -23 -36 -14 -12 20
-55 5 -80 -29 -12 -16 -17 -29 -12 -29 5 0 11 5 13 12 2 6 24 13 49 15 28 2
50 10 60 22 11 13 27 18 57 17 24 0 47 5 54 13 10 11 10 12 1 7 -19 -11 -15 5
5 20 16 12 15 13 -8 13 -14 0 -36 -5 -50 -10z"/>
<path d="M2373 2388 c-22 -28 -23 -36 -5 -31 10 2 18 13 19 24 2 22 -1 24 -14
7z"/>
<path d="M3873 2373 l-52 -4 34 -96 c19 -52 35 -97 37 -98 2 -1 81 -8 176 -14
121 -8 179 -8 192 -1 22 12 26 25 10 35 -10 6 -6 40 11 85 5 14 23 33 39 42
54 31 39 45 -56 53 -97 8 -120 -1 -89 -35 10 -11 13 -20 7 -20 -7 0 -12 -9
-12 -20 0 -10 -9 -24 -21 -30 -11 -7 -29 -20 -40 -31 -23 -23 -33 -24 -64 -3
-13 8 -31 14 -40 12 -24 -4 -51 69 -36 94 17 28 13 38 -16 36 -16 -1 -51 -3
-80 -5z"/>
<path d="M3588 2341 c-64 -9 -120 -20 -123 -23 -4 -4 11 -18 33 -33 33 -21 46
-25 80 -19 57 9 76 -7 68 -58 -6 -37 -5 -38 23 -38 26 0 34 8 66 63 19 36 35
78 35 95 0 30 -2 32 -32 31 -18 -1 -86 -9 -150 -18z"/>
<path d="M2179 2313 l-24 -28 28 24 c25 23 32 31 24 31 -2 0 -14 -12 -28 -27z"/>
<path d="M3085 2323 c-67 -15 -262 -81 -335 -114 -48 -21 -116 -46 -151 -55
-38 -9 -91 -34 -129 -59 -78 -51 -144 -85 -165 -85 -8 0 -15 -4 -15 -9 0 -12
43 -22 50 -11 10 15 80 41 98 36 9 -3 24 -1 32 4 12 8 12 10 -5 10 -34 1 64
40 104 41 20 1 28 3 17 6 -14 4 -4 11 34 24 30 10 63 19 73 19 10 0 15 5 12
10 -3 6 0 10 7 10 8 0 31 9 53 20 22 11 51 20 65 21 23 0 23 1 5 9 -20 9 -20
9 0 9 11 1 69 21 128 45 60 25 135 47 168 51 32 4 59 11 59 16 0 9 -68 11
-105 2z"/>
<path d="M2284 2305 c-16 -12 -16 -14 -3 -15 9 0 22 7 29 15 16 19 0 19 -26 0z"/>
<path d="M5822 2290 c0 -19 2 -27 5 -17 2 9 2 25 0 35 -3 9 -5 1 -5 -18z"/>
<path d="M3313 2286 c3 -8 22 -37 42 -65 l37 -51 59 0 c60 0 77 13 37 29 -13
5 -50 30 -82 55 -58 45 -104 61 -93 32z"/>
<path d="M3234 2115 c-15 -20 -24 -38 -21 -41 8 -8 56 47 57 64 0 19 -7 15
-36 -23z"/>
<path d="M3407 2134 c5 -14 1 -15 -26 -9 -36 8 -49 -11 -31 -44 12 -24 58 -28
92 -10 17 9 24 8 33 -4 12 -17 85 -34 85 -20 0 5 -7 30 -16 56 l-16 47 -64 0
c-54 0 -62 -2 -57 -16z"/>
<path d="M3648 2143 c7 -3 16 -2 19 1 4 3 -2 6 -13 5 -11 0 -14 -3 -6 -6z"/>
<path d="M1965 2131 c-6 -11 9 -23 19 -14 9 9 7 23 -3 23 -6 0 -12 -4 -16 -9z"/>
<path d="M3877 2133 c-4 -3 -7 -30 -7 -60 0 -64 19 -88 80 -98 53 -9 63 3 54
68 -3 26 -2 47 2 47 16 0 64 -54 64 -72 0 -10 -5 -27 -12 -38 -7 -10 -10 -22
-7 -25 3 -3 38 -15 78 -27 67 -20 73 -20 88 -5 11 11 18 39 21 81 l4 65 -45
22 c-25 13 -44 26 -42 29 8 14 -265 26 -278 13z"/>
<path d="M4590 2013 c-19 -32 -65 -94 -101 -138 l-66 -80 26 -23 26 -23 -31
15 c-19 9 -35 11 -45 5 -23 -14 -93 -10 -157 10 -36 11 -65 15 -74 10 -40 -26
-50 6 -18 58 l19 32 -52 15 c-91 26 -179 47 -182 44 -1 -2 12 -32 29 -68 19
-40 39 -66 50 -68 11 -2 125 -39 254 -82 198 -67 237 -77 254 -67 16 9 22 9
25 0 8 -23 50 -14 76 16 13 16 27 47 30 68 16 100 91 142 155 88 55 -46 85 -6
99 128 3 31 4 57 2 57 -2 0 -57 14 -123 30 -65 17 -128 30 -140 30 -16 0 -31
-16 -56 -57z"/>
<path d="M3155 2036 c-11 -6 -32 -23 -48 -37 l-28 -27 46 3 c42 3 77 15 44 15
-8 0 -10 3 -4 8 6 4 16 17 23 30 14 25 2 29 -33 8z"/>
<path d="M3490 1981 c0 -35 3 -39 31 -45 48 -9 49 -9 49 29 0 36 -3 38 -52 49
-27 6 -28 5 -28 -33z"/>
<path d="M2230 1961 c0 -12 29 -23 42 -15 6 4 5 10 -3 15 -18 11 -39 11 -39 0z"/>
<path d="M2961 1943 c-29 -8 -62 -22 -73 -32 -19 -18 -18 -18 26 -19 34 -1 44
2 40 12 -6 16 52 40 61 25 4 -5 18 -9 33 -8 24 0 25 1 7 9 -17 7 -17 9 -2 9 9
1 17 6 17 11 0 13 -43 11 -109 -7z"/>
<path d="M2153 1936 c0 -8 8 -11 19 -8 10 2 15 8 12 13 -8 14 -31 11 -31 -5z"/>
<path d="M2020 1915 c0 -8 8 -15 18 -14 10 0 12 3 4 6 -6 2 -10 9 -6 14 3 5 0
9 -5 9 -6 0 -11 -7 -11 -15z"/>
<path d="M3490 1907 c0 -18 8 -25 40 -34 38 -10 40 -9 40 12 0 17 -9 26 -31
34 -44 15 -49 14 -49 -12z"/>
<path d="M1930 1911 c0 -10 19 -25 25 -20 1 2 -3 10 -11 17 -8 7 -14 8 -14 3z"/>
<path d="M1850 1895 c0 -10 7 -15 18 -13 21 4 19 22 -2 26 -10 2 -16 -3 -16
-13z"/>
<path d="M2705 1842 c-72 -25 -132 -47 -135 -49 -8 -7 32 -33 49 -33 13 0 14
2 2 9 -10 6 -5 11 20 17 19 4 38 7 43 5 5 -1 12 2 15 7 10 14 89 42 119 42 21
0 24 2 12 10 -13 8 -13 10 2 10 9 0 19 4 22 9 14 23 -29 15 -149 -27z"/>
<path d="M3224 1873 c7 -8 115 -43 131 -43 6 0 -8 11 -30 25 -35 21 -120 37
-101 18z"/>
<path d="M3081 1846 l-33 -12 142 -69 c79 -39 194 -95 256 -125 126 -62 138
-59 85 21 -56 83 -87 105 -224 154 -133 47 -169 52 -226 31z"/>
<path d="M3529 1835 c18 -9 36 -14 39 -11 9 10 -2 15 -39 21 l-34 5 34 -15z"/>
<path d="M3510 1790 c0 -19 32 -36 50 -25 18 11 11 23 -20 34 -26 9 -30 8 -30
-9z"/>
<path d="M3931 1777 c-54 -12 -75 -29 -48 -40 8 -3 55 -38 105 -78 87 -68 91
-73 72 -86 -24 -17 -25 -36 -4 -68 22 -34 11 -68 -27 -86 -43 -19 -58 -43 -41
-69 19 -31 14 -50 -17 -67 -25 -15 -28 -21 -24 -54 3 -21 0 -61 -7 -89 -11
-45 -17 -54 -47 -67 -66 -27 -103 -57 -103 -82 0 -30 -56 -84 -115 -110 -31
-14 -46 -27 -51 -46 -3 -14 -4 -28 -1 -31 3 -3 -10 -26 -28 -50 -52 -68 -85
-168 -100 -301 -7 -59 -6 -63 14 -63 27 0 57 34 65 72 3 17 6 61 6 97 0 90 32
141 132 211 66 47 214 125 309 163 23 10 41 26 50 46 8 17 18 31 23 31 14 0
109 -79 139 -116 32 -38 62 -44 72 -14 3 11 6 48 5 82 -1 35 1 93 5 129 11 93
-11 163 -69 221 -37 37 -46 53 -60 115 -21 94 -21 186 0 207 25 26 47 19 100
-31 27 -27 68 -58 90 -70 37 -20 42 -21 62 -7 12 8 22 25 22 37 0 12 7 31 15
41 20 27 19 33 -7 38 -13 3 -125 37 -249 77 -124 39 -228 71 -230 70 -2 0 -28
-6 -58 -12z"/>
<path d="M2420 1765 c-73 -11 -74 -12 -47 -25 19 -9 31 -10 35 -3 9 13 92 24
92 12 0 -5 9 -9 20 -9 14 0 18 5 13 17 -5 12 -3 14 7 8 9 -5 11 -4 6 3 -8 14
-23 13 -126 -3z"/>
<path d="M2110 1735 c0 -10 7 -15 18 -13 21 4 19 22 -2 26 -10 2 -16 -3 -16
-13z"/>
<path d="M2290 1736 c0 -10 9 -16 21 -16 24 0 21 23 -4 28 -10 2 -17 -3 -17
-12z"/>
<path d="M2210 1730 c0 -5 9 -10 20 -10 11 0 20 5 20 10 0 6 -9 10 -20 10 -11
0 -20 -4 -20 -10z"/>
<path d="M2771 1660 l-35 -30 25 -27 c50 -55 52 -67 5 -23 -30 27 -46 37 -41
25 5 -11 21 -56 36 -100 l27 -80 98 3 c55 1 128 5 164 9 l65 6 -60 54 c-59 54
-237 193 -246 193 -2 -1 -20 -14 -38 -30z"/>
<path d="M2212 1635 c7 -7 138 -8 145 -1 3 3 -29 6 -72 6 -43 0 -76 -2 -73 -5z"/>
<path d="M1571 1575 c-2 -21 20 -85 29 -85 5 0 3 15 -4 33 -7 17 -16 39 -19
47 -3 8 -6 11 -6 5z"/>
<path d="M1890 1490 c-9 -6 -10 -10 -3 -10 6 0 15 5 18 10 8 12 4 12 -15 0z"/>
<path d="M1455 1410 c15 -17 17 -31 12 -102 -6 -78 -14 -116 -33 -163 -7 -18
-6 -18 21 3 15 12 30 20 33 18 2 -3 -5 -24 -18 -48 -20 -40 -83 -278 -73 -278
2 0 39 27 81 60 42 32 78 57 80 55 3 -3 -7 -20 -21 -38 -28 -36 -143 -325
-133 -334 3 -3 31 18 61 47 31 29 59 50 62 47 3 -4 -2 -25 -11 -48 -9 -23 -15
-43 -14 -45 2 -1 25 11 51 27 27 16 83 48 125 69 124 64 132 54 36 -49 -36
-39 -63 -71 -59 -71 3 0 25 5 48 10 25 7 64 8 96 3 l53 -8 -56 -39 c-31 -21
-79 -63 -105 -92 -51 -56 -111 -162 -111 -197 0 -19 2 -19 28 6 15 15 30 27
33 27 3 0 3 -43 1 -95 -4 -96 8 -128 23 -62 7 29 9 27 16 -32 12 -91 20 -99
14 -12 -6 85 -11 97 -33 79 -14 -12 -15 -6 -9 60 7 75 4 82 -34 62 -26 -14
-24 -8 13 61 34 65 140 172 207 210 22 12 41 26 41 30 0 10 -152 21 -175 13
-23 -8 -21 -5 48 74 40 46 47 72 20 72 -21 0 -116 -44 -191 -89 -29 -17 -55
-31 -57 -31 -6 0 26 82 38 98 24 31 -17 8 -74 -43 -35 -30 -64 -53 -66 -51 -8
7 108 280 131 306 14 18 26 38 26 46 0 13 -4 13 -28 0 -16 -8 -52 -33 -81 -56
-29 -23 -54 -40 -56 -38 -7 7 44 197 64 236 28 54 28 76 0 69 -18 -5 -20 -2
-15 16 3 12 9 57 13 100 5 66 9 77 22 72 9 -3 0 10 -18 29 -37 38 -57 50 -26
16z"/>
<path d="M1535 1330 c10 -11 20 -20 23 -20 3 0 -3 9 -13 20 -10 11 -20 20 -23
20 -3 0 3 -9 13 -20z"/>
<path d="M1773 1221 c-73 -47 -113 -102 -60 -85 20 7 97 12 97 7 0 -1 -13 -9
-30 -18 -16 -9 -30 -23 -30 -33 -1 -9 -7 -34 -14 -54 -8 -21 -12 -38 -11 -38
1 0 19 7 38 15 34 14 36 14 42 -5 8 -25 19 -25 61 1 30 18 34 25 34 65 0 24
-3 44 -8 44 -4 0 -30 -16 -58 -34 l-52 -35 21 42 c11 23 20 48 20 55 0 6 3 12
7 12 7 0 30 68 30 89 0 19 -23 12 -87 -28z"/>
<path d="M5815 827 c-4 -13 -2 -45 3 -72 10 -50 10 -50 8 22 0 40 -2 73 -3 73
-2 0 -5 -10 -8 -23z"/>
<path d="M2180 649 c0 -5 5 -7 10 -4 6 3 10 8 10 11 0 2 -4 4 -10 4 -5 0 -10
-5 -10 -11z"/>
</g>
</svg>
